<svg width="503" height="288" viewBox="0 0 503 288" fill="none" xmlns="http://www.w3.org/2000/svg">
<path d="M240 192.756H234.331V198.425H211.654V192.756H188.976V198.425H166.299V192.756H143.622V198.425H120.945V192.756H98.2677V198.425H75.5905V192.756H52.9133V198.425H30.2362V192.756H24.5669V198.425V219.213H18.8976V241.89H24.5669V262.677V268.346H30.2362V262.677H52.9133V268.346H75.5905V262.677H98.2677V268.346H120.945V262.677H143.622V268.346H166.299V262.677H188.976V268.346H211.654V262.677H234.331V268.346H240V262.677V241.89H245.669V219.213H240V198.425V192.756Z" stroke="#FF0000" stroke-width="0.944882"/>
<path d="M85.7159 244.792H82.1782V216.31H99.5036V219.349H85.7159V228.828H98.5511V231.866H85.7159V244.792ZM109.482 244.792H105.944V223.068H109.482V244.792ZM109.482 234.996H108.393C108.393 232.244 108.658 229.958 109.187 228.136C109.716 226.314 110.491 224.954 111.511 224.054C112.532 223.155 113.775 222.705 115.242 222.705C115.725 222.705 116.168 222.739 116.568 222.807C116.969 222.875 117.373 222.977 117.781 223.113L117.555 226.605C117.131 226.469 116.67 226.352 116.171 226.254C115.672 226.156 115.226 226.106 114.833 226.106C113.548 226.106 112.513 226.473 111.727 227.206C110.94 227.94 110.37 228.971 110.014 230.302C109.659 231.632 109.482 233.197 109.482 234.996ZM130.186 245.337C128.236 245.337 126.501 244.906 124.981 244.044C123.462 243.182 122.264 241.905 121.387 240.212C120.51 238.518 120.072 236.432 120.072 233.953C120.072 231.458 120.51 229.368 121.387 227.682C122.264 225.997 123.462 224.723 124.981 223.861C126.501 223 128.236 222.569 130.186 222.569C132.121 222.569 133.848 223 135.368 223.861C136.887 224.723 138.081 225.997 138.951 227.682C139.82 229.368 140.254 231.458 140.254 233.953C140.254 236.432 139.82 238.518 138.951 240.212C138.081 241.905 136.887 243.182 135.368 244.044C133.848 244.906 132.121 245.337 130.186 245.337ZM130.095 242.253C131.501 242.253 132.695 241.916 133.678 241.243C134.661 240.571 135.405 239.614 135.912 238.375C136.418 237.135 136.671 235.661 136.671 233.953C136.671 231.368 136.135 229.33 135.061 227.841C133.988 226.352 132.393 225.608 130.276 225.608C128.855 225.608 127.657 225.944 126.682 226.617C125.707 227.289 124.966 228.249 124.46 229.497C123.953 230.744 123.7 232.229 123.7 233.953C123.7 236.508 124.241 238.53 125.322 240.019C126.402 241.508 127.994 242.253 130.095 242.253ZM166.038 244.792H162.546V232.048C162.546 229.977 162.051 228.401 161.061 227.32C160.071 226.239 158.721 225.698 157.013 225.698C155.713 225.698 154.586 226.054 153.634 226.764C152.682 227.475 151.948 228.491 151.434 229.814C150.92 231.137 150.663 232.713 150.663 234.542H149.303C149.303 232.018 149.635 229.863 150.3 228.079C150.966 226.295 151.937 224.931 153.214 223.986C154.492 223.041 156.045 222.569 157.875 222.569C159.583 222.569 161.046 222.951 162.263 223.714C163.48 224.477 164.413 225.57 165.063 226.991C165.713 228.412 166.038 230.098 166.038 232.048V244.792ZM150.663 244.792H147.126V223.113H150.164L150.663 228.102V244.792ZM181.164 245.337C179.985 245.337 178.927 245.11 177.989 244.656C177.052 244.203 176.311 243.522 175.767 242.615C175.223 241.708 174.951 240.574 174.951 239.214V217.081H178.443V239.123C178.443 241.361 179.486 242.479 181.572 242.479C182.192 242.479 182.793 242.411 183.375 242.275C183.957 242.139 184.611 241.935 185.337 241.663L185.836 244.203C185.065 244.535 184.297 244.808 183.534 245.019C182.77 245.231 181.98 245.337 181.164 245.337ZM185.291 225.562H171.458V223.113H185.291V225.562Z" fill="black"/>
<path d="M240 105.827H234.331V111.496H211.654V105.827H188.976V111.496H166.299V105.827H143.622V111.496H120.945V105.827H98.2677V111.496H75.5905V105.827H52.9133V111.496H30.2362V105.827H24.5669V111.496V132.283H18.8976V154.961H24.5669V175.748V181.417H30.2362V175.748H52.9133V181.417H75.5905V175.748H98.2677V181.417H120.945V175.748H143.622V181.417H166.299V175.748H188.976V181.417H211.654V175.748H234.331V181.417H240V175.748V154.961H245.669V132.283H240V111.496V105.827Z" stroke="#FF0000" stroke-width="0.944882"/>
<path d="M96.4648 159.088H85.8065V130.605H96.4648C98.5511 130.605 100.282 130.949 101.658 131.637C103.034 132.325 104.062 133.232 104.742 134.358C105.422 135.485 105.762 136.713 105.762 138.043C105.762 139.676 105.313 141.093 104.413 142.295C103.514 143.497 102.164 144.317 100.365 144.756C101.529 144.937 102.554 145.349 103.438 145.992C104.322 146.634 105.014 147.42 105.513 148.35C106.012 149.28 106.261 150.274 106.261 151.332C106.261 152.3 106.099 153.245 105.774 154.167C105.449 155.089 104.908 155.921 104.152 156.661C103.396 157.402 102.391 157.992 101.136 158.43C99.8815 158.869 98.3243 159.088 96.4648 159.088ZM89.3442 146.389V156.004H96.4194C98.5813 156.004 100.135 155.55 101.08 154.643C102.024 153.736 102.497 152.572 102.497 151.151C102.497 149.715 101.983 148.562 100.955 147.693C99.9268 146.823 98.415 146.389 96.4194 146.389H89.3442ZM96.3741 133.644H89.3442V143.35H96.3287C98.0975 143.35 99.5073 142.915 100.558 142.046C101.609 141.177 102.134 139.948 102.134 138.361C102.134 136.879 101.624 135.723 100.603 134.891C99.5829 134.06 98.1731 133.644 96.3741 133.644ZM130.503 159.088H127.419L126.966 154.326V145.028C126.966 143.078 126.55 141.676 125.718 140.821C124.887 139.967 123.64 139.54 121.977 139.54C121.039 139.54 120.189 139.676 119.425 139.948C118.662 140.22 118.057 140.64 117.611 141.207C117.165 141.774 116.942 142.503 116.942 143.395H112.996C112.996 141.823 113.382 140.557 114.153 139.597C114.924 138.637 115.986 137.941 117.339 137.511C118.692 137.08 120.238 136.864 121.977 136.864C123.64 136.864 125.114 137.144 126.399 137.703C127.684 138.263 128.689 139.151 129.415 140.368C130.14 141.585 130.503 143.168 130.503 145.119V159.088ZM120.026 159.632C118.242 159.632 116.768 159.315 115.604 158.68C114.44 158.045 113.571 157.221 112.996 156.208C112.422 155.195 112.135 154.129 112.135 153.01C112.135 151.544 112.501 150.35 113.235 149.427C113.968 148.505 114.969 147.829 116.239 147.398C117.509 146.967 118.938 146.751 120.525 146.751C121.659 146.751 122.797 146.865 123.938 147.092C125.08 147.318 126.195 147.628 127.283 148.021V150.244C126.376 149.881 125.352 149.594 124.21 149.382C123.069 149.17 122.022 149.065 121.07 149.065C119.618 149.065 118.394 149.363 117.396 149.96C116.398 150.557 115.899 151.574 115.899 153.01C115.899 154.069 116.281 154.976 117.044 155.732C117.808 156.488 119.029 156.865 120.707 156.865C121.886 156.865 122.948 156.59 123.893 156.038C124.838 155.486 125.586 154.794 126.138 153.963C126.69 153.131 126.966 152.3 126.966 151.468H127.827C127.827 152.92 127.514 154.265 126.886 155.505C126.259 156.745 125.363 157.742 124.199 158.498C123.035 159.254 121.644 159.632 120.026 159.632ZM146.581 159.632C144.843 159.632 143.221 159.163 141.717 158.226C140.213 157.289 139 155.966 138.077 154.258C137.155 152.549 136.694 150.531 136.694 148.203C136.694 145.814 137.155 143.773 138.077 142.08C139 140.387 140.213 139.094 141.717 138.202C143.221 137.31 144.843 136.864 146.581 136.864C147.806 136.864 148.906 137.049 149.881 137.42C150.856 137.79 151.706 138.3 152.432 138.951C153.158 139.601 153.759 140.338 154.235 141.162C154.711 141.985 155.063 142.851 155.289 143.758L151.661 144.076C151.283 142.821 150.652 141.827 149.767 141.093C148.883 140.36 147.806 139.994 146.536 139.994C145.463 139.994 144.453 140.3 143.509 140.912C142.564 141.524 141.796 142.439 141.207 143.656C140.617 144.873 140.322 146.389 140.322 148.203C140.322 149.881 140.591 151.336 141.127 152.568C141.664 153.8 142.401 154.756 143.338 155.437C144.276 156.117 145.342 156.457 146.536 156.457C148.214 156.457 149.488 156.045 150.357 155.221C151.226 154.397 151.661 153.252 151.661 151.786H155.289C155.289 153.298 154.934 154.643 154.224 155.822C153.513 157.002 152.504 157.931 151.196 158.612C149.888 159.292 148.35 159.632 146.581 159.632ZM165.902 159.088H162.365V128.156H165.902V159.088ZM165.358 150.425V146.661L176.424 137.408H181.368L165.358 150.425ZM181.867 159.088H177.513L167.218 145.391L170.801 144.756L181.867 159.088Z" fill="black"/>
<path d="M113.386 18.8977H107.716H100.157V24.567H77.4803V18.8977H54.8031V24.567H32.1259V18.8977H24.5669H18.8976V24.567V45.3544H24.5669V68.0316H18.8976V88.819V94.4883H24.5669H32.1259V88.819H54.8031V94.4883H77.4803V88.819H100.157V94.4883H107.716H113.386V88.819V68.0316H107.716V45.3544H113.386V24.567V18.8977Z" stroke="#FF0000" stroke-width="0.944882"/>
<path d="M30 38.7667H33.5376V64.1651H46.2369V67.2492H30V38.7667ZM58.732 67.7935C56.8573 67.7935 55.183 67.3135 53.709 66.3535C52.235 65.3935 51.0709 64.0593 50.2167 62.3509C49.3625 60.6426 48.9354 58.6772 48.9354 56.4549C48.9354 54.0813 49.3587 52.0404 50.2054 50.332C51.052 48.6237 52.2123 47.3122 53.6863 46.3976C55.1603 45.4829 56.8422 45.0256 58.732 45.0256C60.3798 45.0256 61.7858 45.3582 62.9499 46.0234C64.114 46.6886 65.0513 47.5881 65.7619 48.722C66.4724 49.8558 66.9676 51.1371 67.2472 52.5657C67.5269 53.9944 67.6063 55.4722 67.4854 56.9991H51.7928V54.8221H65.1496L64.1065 55.5024C64.1518 54.6105 64.1027 53.7185 63.9591 52.8265C63.8154 51.9346 63.5471 51.1144 63.154 50.3661C62.7609 49.6177 62.2091 49.0168 61.4986 48.5632C60.788 48.1097 59.8809 47.8829 58.7773 47.8829C57.3865 47.8829 56.2224 48.2382 55.285 48.9487C54.3477 49.6593 53.6447 50.5928 53.1761 51.7494C52.7074 52.9059 52.4731 54.1569 52.4731 55.5024V56.9538C52.4731 58.4656 52.7036 59.8187 53.1647 61.013C53.6258 62.2073 54.3175 63.1522 55.2397 63.8476C56.1619 64.5431 57.326 64.8908 58.732 64.8908C60.138 64.8908 61.2945 64.5506 62.2016 63.8703C63.1087 63.19 63.6605 62.1846 63.857 60.8542H67.5307C67.3039 62.2905 66.7899 63.5264 65.9887 64.562C65.1874 65.5976 64.1669 66.395 62.9272 66.9544C61.6876 67.5138 60.2891 67.7935 58.732 67.7935ZM79.2094 67.2492H75.6718V42.2136C75.6718 40.7774 75.9477 39.602 76.4995 38.6873C77.0513 37.7727 77.7921 37.0961 78.7219 36.6577C79.6517 36.2193 80.691 36.0001 81.84 36.0001C82.4598 36.0001 83.091 36.0454 83.7335 36.1361C84.3761 36.2268 85.0148 36.3629 85.6498 36.5443L84.9695 39.3563C84.5159 39.1749 84.0661 39.0388 83.6202 38.9481C83.1742 38.8574 82.7471 38.812 82.3389 38.812C81.8551 38.812 81.3713 38.9027 80.8876 39.0842C80.4038 39.2656 80.0032 39.6057 79.6857 40.1046C79.3682 40.6035 79.2094 41.3216 79.2094 42.259V67.2492ZM83.6995 48.019H72.1342V45.5698H83.6995V48.019ZM96.6936 67.7935C95.5143 67.7935 94.4561 67.5667 93.5187 67.1131C92.5814 66.6596 91.8406 65.9793 91.2964 65.0722C90.7521 64.1651 90.48 63.0313 90.48 61.6706V39.5377H93.9723V61.5799C93.9723 63.8174 95.0154 64.9361 97.1017 64.9361C97.7216 64.9361 98.3225 64.8681 98.9046 64.732C99.4866 64.596 100.14 64.3919 100.866 64.1198L101.365 66.6596C100.594 66.9922 99.8268 67.2643 99.0633 67.476C98.2998 67.6876 97.5099 67.7935 96.6936 67.7935ZM100.821 48.019H86.9877V45.5698H100.821V48.019Z" fill="black"/>
<path d="M219.213 18.8977H213.543H205.984V24.567H183.307V18.8977H160.63V24.567H137.953V18.8977H130.394H124.724V24.567V45.3544H130.394V68.0316H124.724V88.819V94.4883H130.394H137.953V88.819H160.63V94.4883H183.307V88.819H205.984V94.4883H213.543H219.213V88.819V68.0316H213.543V45.3544H219.213V24.567V18.8977Z" stroke="#FF0000" stroke-width="0.944882"/>
<path d="M124.426 72.3177H120.888V43.8352H130.821C134.071 43.8352 136.532 44.61 138.202 46.1596C139.873 47.7092 140.708 49.7463 140.708 52.2711C140.708 54.7656 139.873 56.7876 138.202 58.3372C136.532 59.8868 134.071 60.6616 130.821 60.6616H124.426V72.3177ZM141.434 72.3177H136.853L128.689 59.3917H132.544L141.434 72.3177ZM124.426 46.8739V58.1671H130.549C132.68 58.1671 134.302 57.6418 135.413 56.5911C136.524 55.5404 137.08 54.176 137.08 52.4978C137.08 50.7744 136.547 49.4062 135.481 48.3933C134.415 47.3804 132.862 46.8739 130.821 46.8739H124.426ZM150.663 45.5133C149.938 45.5133 149.363 45.3054 148.94 44.8897C148.517 44.4739 148.305 43.9259 148.305 43.2456C148.305 42.5804 148.517 42.0512 148.94 41.6582C149.363 41.2651 149.938 41.0686 150.663 41.0686C151.389 41.0686 151.963 41.2651 152.387 41.6582C152.81 42.0512 153.022 42.5804 153.022 43.2456C153.022 43.9259 152.81 44.4739 152.387 44.8897C151.963 45.3054 151.389 45.5133 150.663 45.5133ZM152.432 72.3177H148.894V50.593H152.432V72.3177ZM169.848 83.4749C167.626 83.4749 165.698 83.1612 164.066 82.5338C162.433 81.9063 161.167 81.0673 160.267 80.0166C159.368 78.9659 158.918 77.8056 158.918 76.5356C158.918 74.8575 159.534 73.5763 160.766 72.6919C161.998 71.8075 163.589 71.3652 165.54 71.3652L167.49 72.5898C165.857 72.5898 164.595 72.93 163.703 73.6103C162.811 74.2906 162.365 75.2204 162.365 76.3996C162.365 77.5788 163 78.5766 164.27 79.393C165.54 80.2093 167.399 80.6175 169.848 80.6175C171.662 80.6175 173.254 80.3567 174.622 79.8352C175.99 79.3136 177.056 78.6333 177.819 77.7942C178.583 76.9552 178.964 76.0519 178.964 75.0843C178.964 74.404 178.715 73.8182 178.216 73.3268C177.717 72.8355 176.954 72.5898 175.926 72.5898H167.49C166.023 72.5898 164.757 72.3668 163.691 71.9208C162.626 71.4749 161.805 70.889 161.231 70.1634C160.656 69.4377 160.369 68.644 160.369 67.7823C160.369 66.8752 160.626 66.1041 161.14 65.4692C161.654 64.8342 162.323 64.3504 163.147 64.0178C163.971 63.6852 164.859 63.5189 165.812 63.5189L166.492 64.8342C166.038 64.8342 165.581 64.9363 165.12 65.1404C164.659 65.3445 164.273 65.6468 163.963 66.0475C163.654 66.4481 163.499 66.9508 163.499 67.5555C163.499 68.2509 163.786 68.833 164.36 69.3016C164.935 69.7703 165.978 70.0046 167.49 70.0046H175.926C177.967 70.0046 179.573 70.4355 180.745 71.2972C181.916 72.1589 182.502 73.3608 182.502 74.9029C182.502 76.324 181.996 77.6884 180.983 78.9961C179.97 80.3038 178.518 81.3772 176.629 82.2163C174.739 83.0553 172.479 83.4749 169.848 83.4749ZM170.483 65.9681C168.82 65.9681 167.32 65.6355 165.982 64.9703C164.644 64.3051 163.586 63.3753 162.807 62.181C162.028 60.9867 161.639 59.6034 161.639 58.0311C161.639 56.4437 162.028 55.0528 162.807 53.8585C163.586 52.6641 164.644 51.7382 165.982 51.0805C167.32 50.4229 168.82 50.0941 170.483 50.0941C172.101 50.0941 173.571 50.4229 174.894 51.0805C176.217 51.7382 177.271 52.6641 178.057 53.8585C178.843 55.0528 179.237 56.4437 179.237 58.0311C179.237 59.6034 178.843 60.9867 178.057 62.181C177.271 63.3753 176.217 64.3051 174.894 64.9703C173.571 65.6355 172.101 65.9681 170.483 65.9681ZM170.483 63.4282C172.146 63.4282 173.439 62.9142 174.361 61.8862C175.283 60.8582 175.744 59.5731 175.744 58.0311C175.744 56.4437 175.283 55.1549 174.361 54.1646C173.439 53.1744 172.146 52.6793 170.483 52.6793C168.835 52.6793 167.539 53.1744 166.594 54.1646C165.649 55.1549 165.177 56.4437 165.177 58.0311C165.177 59.5731 165.649 60.8582 166.594 61.8862C167.539 62.9142 168.835 63.4282 170.483 63.4282ZM177.604 53.541L175.926 52.8607C175.926 51.5908 176.175 50.4758 176.674 49.5158C177.173 48.5558 177.883 47.8074 178.806 47.2708C179.728 46.7341 180.824 46.4657 182.094 46.4657L181.822 49.958C180.461 49.958 179.418 50.249 178.692 50.8311C177.967 51.4131 177.604 52.3164 177.604 53.541ZM206.699 72.3177H203.206V59.5731C203.206 57.5019 202.711 55.9259 201.721 54.8449C200.731 53.764 199.381 53.2235 197.673 53.2235C196.373 53.2235 195.247 53.5788 194.294 54.2893C193.342 54.9999 192.608 56.0166 192.094 57.3394C191.58 58.6623 191.323 60.2383 191.323 62.0676H189.963C189.963 59.5429 190.295 57.3886 190.961 55.6046C191.626 53.8207 192.597 52.4563 193.875 51.5114C195.152 50.5665 196.706 50.0941 198.535 50.0941C200.243 50.0941 201.706 50.4758 202.923 51.2393C204.14 52.0027 205.073 53.095 205.723 54.5161C206.374 55.9372 206.699 57.6229 206.699 59.5731V72.3177ZM191.323 72.3177H187.786V41.386H191.323V72.3177ZM221.824 72.8619C220.645 72.8619 219.587 72.6352 218.649 72.1816C217.712 71.7281 216.971 71.0478 216.427 70.1407C215.883 69.2336 215.611 68.0997 215.611 66.7391V44.6062H219.103V66.6484C219.103 68.8859 220.146 70.0046 222.232 70.0046C222.852 70.0046 223.453 69.9366 224.035 69.8005C224.617 69.6645 225.271 69.4604 225.997 69.1882L226.496 71.7281C225.725 72.0607 224.957 72.3328 224.194 72.5445C223.431 72.7561 222.641 72.8619 221.824 72.8619ZM225.951 53.0875H212.118V50.6383H225.951V53.0875Z" fill="black"/>
<path d="M472.441 173.858H449.764V179.528H427.087V173.858H404.409V179.528H381.732V173.858H359.055V179.528H336.378V173.858H313.701V179.528H291.024V173.858H268.346V179.528H262.677V187.087H257.008V209.764H262.677V232.441H257.008V255.118H262.677V262.677H268.346V268.346H291.024V262.677H313.701V268.346H336.378V262.677H359.055V268.346H381.732V262.677H404.409V268.346H427.087V262.677H449.764V268.346H472.441V262.677H478.11V255.118H483.779V232.441H478.11V209.764H483.779V187.087H478.11V179.528H472.441V173.858Z" stroke="#FF0000" stroke-width="0.944882"/>
<path d="M308.485 235.344H297.827V206.861H308.485C310.571 206.861 312.302 207.205 313.678 207.893C315.054 208.581 316.082 209.488 316.762 210.614C317.442 211.741 317.783 212.969 317.783 214.299C317.783 215.932 317.333 217.349 316.433 218.551C315.534 219.753 314.184 220.573 312.385 221.012C313.549 221.193 314.574 221.605 315.458 222.248C316.343 222.89 317.034 223.676 317.533 224.606C318.032 225.536 318.281 226.53 318.281 227.588C318.281 228.556 318.119 229.501 317.794 230.423C317.469 231.345 316.928 232.176 316.172 232.917C315.417 233.658 314.411 234.248 313.156 234.686C311.902 235.124 310.344 235.344 308.485 235.344ZM301.364 222.644V232.26H308.44C310.601 232.26 312.155 231.806 313.1 230.899C314.045 229.992 314.517 228.828 314.517 227.407C314.517 225.97 314.003 224.818 312.975 223.948C311.947 223.079 310.435 222.644 308.44 222.644H301.364ZM308.394 209.9H301.364V219.606H308.349C310.118 219.606 311.527 219.171 312.578 218.302C313.629 217.433 314.154 216.204 314.154 214.617C314.154 213.135 313.644 211.979 312.624 211.147C311.603 210.316 310.193 209.9 308.394 209.9ZM333.861 235.888C331.91 235.888 330.176 235.457 328.656 234.595C327.137 233.734 325.939 232.456 325.062 230.763C324.185 229.07 323.747 226.983 323.747 224.504C323.747 222.01 324.185 219.919 325.062 218.234C325.939 216.548 327.137 215.274 328.656 214.413C330.176 213.551 331.91 213.12 333.861 213.12C335.796 213.12 337.523 213.551 339.042 214.413C340.562 215.274 341.756 216.548 342.625 218.234C343.495 219.919 343.929 222.01 343.929 224.504C343.929 226.983 343.495 229.07 342.625 230.763C341.756 232.456 340.562 233.734 339.042 234.595C337.523 235.457 335.796 235.888 333.861 235.888ZM333.77 232.804C335.176 232.804 336.37 232.467 337.353 231.795C338.336 231.122 339.08 230.166 339.587 228.926C340.093 227.686 340.346 226.212 340.346 224.504C340.346 221.919 339.81 219.882 338.736 218.393C337.663 216.903 336.068 216.159 333.951 216.159C332.53 216.159 331.332 216.495 330.357 217.168C329.382 217.841 328.641 218.801 328.135 220.048C327.628 221.295 327.375 222.781 327.375 224.504C327.375 227.059 327.915 229.081 328.996 230.57C330.077 232.059 331.669 232.804 333.77 232.804ZM357.468 235.888C356.288 235.888 355.23 235.661 354.293 235.208C353.355 234.754 352.615 234.074 352.07 233.167C351.526 232.26 351.254 231.126 351.254 229.765V207.632H354.746V229.674C354.746 231.912 355.789 233.031 357.876 233.031C358.496 233.031 359.097 232.963 359.679 232.827C360.261 232.69 360.915 232.486 361.64 232.214L362.139 234.754C361.368 235.087 360.601 235.359 359.837 235.57C359.074 235.782 358.284 235.888 357.468 235.888ZM361.595 216.113H347.762V213.664H361.595V216.113ZM374.521 235.888C373.342 235.888 372.283 235.661 371.346 235.208C370.409 234.754 369.668 234.074 369.124 233.167C368.579 232.26 368.307 231.126 368.307 229.765V207.632H371.8V229.674C371.8 231.912 372.843 233.031 374.929 233.031C375.549 233.031 376.15 232.963 376.732 232.827C377.314 232.69 377.968 232.486 378.693 232.214L379.192 234.754C378.421 235.087 377.654 235.359 376.891 235.57C376.127 235.782 375.337 235.888 374.521 235.888ZM378.648 216.113H364.815V213.664H378.648V216.113ZM392.753 235.888C390.803 235.888 389.068 235.457 387.549 234.595C386.029 233.734 384.831 232.456 383.955 230.763C383.078 229.07 382.639 226.983 382.639 224.504C382.639 222.01 383.078 219.919 383.955 218.234C384.831 216.548 386.029 215.274 387.549 214.413C389.068 213.551 390.803 213.12 392.753 213.12C394.688 213.12 396.416 213.551 397.935 214.413C399.454 215.274 400.649 216.548 401.518 218.234C402.387 219.919 402.822 222.01 402.822 224.504C402.822 226.983 402.387 229.07 401.518 230.763C400.649 232.456 399.454 233.734 397.935 234.595C396.416 235.457 394.688 235.888 392.753 235.888ZM392.663 232.804C394.069 232.804 395.263 232.467 396.246 231.795C397.228 231.122 397.973 230.166 398.479 228.926C398.986 227.686 399.239 226.212 399.239 224.504C399.239 221.919 398.702 219.882 397.629 218.393C396.555 216.903 394.961 216.159 392.844 216.159C391.423 216.159 390.225 216.495 389.25 217.168C388.275 217.841 387.534 218.801 387.027 220.048C386.521 221.295 386.268 222.781 386.268 224.504C386.268 227.059 386.808 229.081 387.889 230.57C388.97 232.059 390.561 232.804 392.663 232.804ZM443.709 235.344H440.171V222.599C440.171 220.528 439.676 218.952 438.686 217.871C437.696 216.79 436.361 216.25 434.683 216.25C432.718 216.25 431.214 217.009 430.171 218.529C429.127 220.048 428.606 222.146 428.606 224.821H426.973C426.973 222.871 427.166 221.163 427.551 219.696C427.937 218.23 428.5 217.009 429.241 216.034C429.982 215.059 430.881 214.33 431.939 213.846C432.998 213.362 434.2 213.12 435.545 213.12C437.253 213.12 438.716 213.502 439.933 214.265C441.15 215.029 442.084 216.121 442.734 217.542C443.384 218.963 443.709 220.649 443.709 222.599V235.344ZM413.231 235.344H409.693V213.664H412.732L413.14 218.018C413.82 216.446 414.777 215.237 416.009 214.39C417.241 213.543 418.719 213.12 420.442 213.12C422.15 213.12 423.613 213.502 424.83 214.265C426.047 215.029 426.981 216.121 427.631 217.542C428.281 218.963 428.606 220.649 428.606 222.599V235.344H425.114V222.599C425.114 220.528 424.618 218.952 423.628 217.871C422.638 216.79 421.289 216.25 419.58 216.25C418.28 216.25 417.154 216.605 416.201 217.315C415.249 218.026 414.516 219.043 414.002 220.365C413.488 221.688 413.231 223.264 413.231 225.094V235.344Z" fill="black"/>
<path d="M472.441 68.0316H449.764V73.7009H427.087V68.0316H404.409V73.7009H381.732V68.0316H359.055V73.7009H336.378V68.0316H313.701V73.7009H291.024V68.0316H268.346V73.7009H262.677V81.2599H257.008V103.937H262.677V126.614H257.008V149.291H262.677V156.85H268.346V162.52H291.024V156.85H313.701V162.52H336.378V156.85H359.055V162.52H381.732V156.85H404.409V162.52H427.087V156.85H449.764V162.52H472.441V156.85H478.11V149.291H483.779V126.614H478.11V103.937H483.779V81.2599H478.11V73.7009H472.441V68.0316Z" stroke="#FF0000" stroke-width="0.944882"/>
<path d="M343.759 104.073H333.668V101.035H355.846V104.073H345.71L346.503 103.257V129.517H342.966V103.257L343.759 104.073ZM368.523 130.061C366.573 130.061 364.838 129.63 363.318 128.769C361.799 127.907 360.601 126.629 359.724 124.936C358.847 123.243 358.409 121.157 358.409 118.677C358.409 116.183 358.847 114.093 359.724 112.407C360.601 110.721 361.799 109.448 363.318 108.586C364.838 107.724 366.573 107.293 368.523 107.293C370.458 107.293 372.185 107.724 373.705 108.586C375.224 109.448 376.418 110.721 377.287 112.407C378.157 114.093 378.591 116.183 378.591 118.677C378.591 121.157 378.157 123.243 377.287 124.936C376.418 126.629 375.224 127.907 373.705 128.769C372.185 129.63 370.458 130.061 368.523 130.061ZM368.432 126.977C369.838 126.977 371.032 126.641 372.015 125.968C372.998 125.295 373.742 124.339 374.249 123.099C374.755 121.86 375.008 120.386 375.008 118.677C375.008 116.092 374.472 114.055 373.398 112.566C372.325 111.077 370.73 110.332 368.613 110.332C367.192 110.332 365.994 110.669 365.019 111.341C364.044 112.014 363.303 112.974 362.797 114.221C362.29 115.469 362.037 116.954 362.037 118.677C362.037 121.232 362.578 123.254 363.659 124.743C364.739 126.233 366.331 126.977 368.432 126.977ZM395.305 130.061C393.717 130.061 392.338 129.698 391.166 128.973C389.994 128.247 389.091 127.185 388.456 125.787C387.821 124.388 387.504 122.684 387.504 120.673H389C389 122.018 389.28 123.152 389.839 124.075C390.399 124.997 391.128 125.696 392.028 126.172C392.927 126.648 393.883 126.886 394.896 126.886C395.985 126.886 397.028 126.573 398.026 125.945C399.024 125.318 399.84 124.392 400.475 123.167C401.11 121.943 401.427 120.431 401.427 118.632C401.427 116.909 401.136 115.435 400.554 114.21C399.972 112.985 399.19 112.048 398.207 111.398C397.225 110.748 396.136 110.423 394.942 110.423C393.914 110.423 392.946 110.672 392.039 111.171C391.132 111.67 390.399 112.4 389.839 113.36C389.28 114.32 389 115.503 389 116.909H387.504C387.504 114.807 387.851 113.042 388.547 111.613C389.242 110.185 390.187 109.108 391.381 108.382C392.576 107.656 393.914 107.293 395.395 107.293C397.088 107.293 398.668 107.747 400.135 108.654C401.601 109.561 402.788 110.861 403.695 112.555C404.602 114.248 405.056 116.274 405.056 118.632C405.056 121.021 404.598 123.069 403.684 124.777C402.769 126.486 401.571 127.794 400.089 128.701C398.608 129.608 397.013 130.061 395.305 130.061ZM389 140.175H385.463V107.838H388.411L389 112.917V140.175Z" fill="black"/>
<path d="M305 23.9999H302.12H298.28V26.8799H286.76V23.9999H275.24V26.8799H263.72V23.9999H259.88H257V26.8799V37.4399H259.88V48.9599H257V59.5199V62.3999H259.88H263.72V59.5199H275.24V62.3999H286.76V59.5199H298.28V62.3999H302.12H305V59.5199V48.9599H302.12V37.4399H305V26.8799V23.9999Z" stroke="#FF0000" stroke-width="0.944882"/>
<path d="M281.48 48.884C283.764 48.884 285.463 48.8843 286.735 48.929C288.019 48.974 288.811 49.0638 289.309 49.2209C289.55 49.2971 289.697 49.3814 289.79 49.4631C289.878 49.5404 289.94 49.6334 289.986 49.7649C290.093 50.0704 290.1 50.5082 290.1 51.2639C290.1 52.0195 290.093 52.4575 289.986 52.7629C289.94 52.8944 289.878 52.9874 289.79 53.0647C289.697 53.1464 289.55 53.2307 289.309 53.3069C288.811 53.4641 288.019 53.5538 286.735 53.5989C285.463 53.6435 283.764 53.6438 281.48 53.6438C279.196 53.6438 277.497 53.6435 276.225 53.5989C274.942 53.5538 274.149 53.4641 273.651 53.3069C273.41 53.2307 273.264 53.1464 273.171 53.0647C273.083 52.9874 273.021 52.8945 272.974 52.7629C272.867 52.4575 272.86 52.0196 272.86 51.2639C272.86 50.5082 272.867 50.0704 272.974 49.7649C273.021 49.6334 273.082 49.5404 273.171 49.4631C273.264 49.3814 273.41 49.2971 273.651 49.2209C274.149 49.0638 274.942 48.974 276.225 48.929C277.497 48.8843 279.196 48.884 281.48 48.884Z" stroke="#FF0000"/>
</svg>
